<svg width="350" height="110" viewBox="0 0 350 110" fill="none" xmlns="http://www.w3.org/2000/svg">
<path d="M26.1041 92.6613C26.1041 91.3333 26.3761 90.1573 26.9201 89.1333C27.4801 88.1093 28.2321 87.3173 29.1761 86.7573C30.1361 86.1813 31.1921 85.8933 32.3441 85.8933C33.3841 85.8933 34.2881 86.1013 35.0561 86.5173C35.8401 86.9173 36.4641 87.4213 36.9281 88.0293V86.1093H39.6881V99.3333H36.9281V97.3653C36.4641 97.9893 35.8321 98.5093 35.0321 98.9253C34.2321 99.3413 33.3201 99.5493 32.2961 99.5493C31.1601 99.5493 30.1201 99.2613 29.1761 98.6853C28.2321 98.0933 27.4801 97.2773 26.9201 96.2373C26.3761 95.1813 26.1041 93.9893 26.1041 92.6613ZM36.9281 92.7093C36.9281 91.7973 36.7361 91.0053 36.3521 90.3333C35.9841 89.6613 35.4961 89.1493 34.8881 88.7973C34.2801 88.4453 33.6241 88.2693 32.9201 88.2693C32.2161 88.2693 31.5601 88.4453 30.9521 88.7973C30.3441 89.1333 29.8481 89.6373 29.4641 90.3093C29.0961 90.9653 28.9121 91.7493 28.9121 92.6613C28.9121 93.5733 29.0961 94.3733 29.4641 95.0613C29.8481 95.7493 30.3441 96.2773 30.9521 96.6453C31.5761 96.9973 32.2321 97.1733 32.9201 97.1733C33.6241 97.1733 34.2801 96.9973 34.8881 96.6453C35.4961 96.2933 35.9841 95.7813 36.3521 95.1093C36.7361 94.4213 36.9281 93.6213 36.9281 92.7093ZM46.0178 81.5733V99.3333H43.2818V81.5733H46.0178ZM61.5859 86.1093V99.3333H58.8499V97.7733C58.4179 98.3173 57.8499 98.7493 57.1459 99.0693C56.4579 99.3733 55.7219 99.5253 54.9379 99.5253C53.8979 99.5253 52.9619 99.3093 52.1299 98.8773C51.3139 98.4453 50.6659 97.8053 50.1859 96.9573C49.7219 96.1093 49.4899 95.0853 49.4899 93.8853V86.1093H52.2019V93.4773C52.2019 94.6613 52.4979 95.5733 53.0899 96.2133C53.6819 96.8373 54.4899 97.1493 55.5139 97.1493C56.5379 97.1493 57.3459 96.8373 57.9379 96.2133C58.5459 95.5733 58.8499 94.6613 58.8499 93.4773V86.1093H61.5859ZM70.5238 85.8933C71.5478 85.8933 72.4518 86.1013 73.2358 86.5173C74.0358 86.9173 74.6598 87.4213 75.1078 88.0293V86.1093H77.8678V99.5493C77.8678 100.765 77.6118 101.845 77.0998 102.789C76.5878 103.749 75.8438 104.501 74.8678 105.045C73.9078 105.589 72.7558 105.861 71.4118 105.861C69.6198 105.861 68.1318 105.437 66.9478 104.589C65.7638 103.757 65.0918 102.621 64.9318 101.181H67.6438C67.8518 101.869 68.2918 102.421 68.9638 102.837C69.6518 103.269 70.4678 103.485 71.4118 103.485C72.5158 103.485 73.4038 103.149 74.0758 102.477C74.7638 101.805 75.1078 100.829 75.1078 99.5493V97.3413C74.6438 97.9653 74.0118 98.4933 73.2118 98.9253C72.4278 99.3413 71.5318 99.5493 70.5238 99.5493C69.3718 99.5493 68.3158 99.2613 67.3558 98.6853C66.4118 98.0933 65.6598 97.2773 65.0998 96.2373C64.5558 95.1813 64.2838 93.9893 64.2838 92.6613C64.2838 91.3333 64.5558 90.1573 65.0998 89.1333C65.6598 88.1093 66.4118 87.3173 67.3558 86.7573C68.3158 86.1813 69.3718 85.8933 70.5238 85.8933ZM75.1078 92.7093C75.1078 91.7973 74.9158 91.0053 74.5318 90.3333C74.1638 89.6613 73.6758 89.1493 73.0678 88.7973C72.4598 88.4453 71.8038 88.2693 71.0998 88.2693C70.3958 88.2693 69.7398 88.4453 69.1318 88.7973C68.5238 89.1333 68.0278 89.6373 67.6438 90.3093C67.2758 90.9653 67.0918 91.7493 67.0918 92.6613C67.0918 93.5733 67.2758 94.3733 67.6438 95.0613C68.0278 95.7493 68.5238 96.2773 69.1318 96.6453C69.7558 96.9973 70.4118 97.1733 71.0998 97.1733C71.8038 97.1733 72.4598 96.9973 73.0678 96.6453C73.6758 96.2933 74.1638 95.7813 74.5318 95.1093C74.9158 94.4213 75.1078 93.6213 75.1078 92.7093ZM93.4374 86.1093V99.3333H90.7014V97.7733C90.2694 98.3173 89.7014 98.7493 88.9974 99.0693C88.3094 99.3733 87.5734 99.5253 86.7894 99.5253C85.7494 99.5253 84.8134 99.3093 83.9814 98.8773C83.1654 98.4453 82.5174 97.8053 82.0374 96.9573C81.5734 96.1093 81.3414 95.0853 81.3414 93.8853V86.1093H84.0534V93.4773C84.0534 94.6613 84.3494 95.5733 84.9414 96.2133C85.5334 96.8373 86.3414 97.1493 87.3654 97.1493C88.3894 97.1493 89.1974 96.8373 89.7894 96.2133C90.3974 95.5733 90.7014 94.6613 90.7014 93.4773V86.1093H93.4374ZM109.167 92.3973C109.167 92.8933 109.135 93.3413 109.071 93.7413H98.9674C99.0474 94.7973 99.4394 95.6453 100.143 96.2853C100.847 96.9253 101.711 97.2453 102.735 97.2453C104.207 97.2453 105.247 96.6293 105.855 95.3973H108.807C108.407 96.6133 107.679 97.6133 106.623 98.3973C105.583 99.1653 104.287 99.5493 102.735 99.5493C101.471 99.5493 100.335 99.2693 99.3274 98.7093C98.3354 98.1333 97.5514 97.3333 96.9754 96.3093C96.4154 95.2693 96.1354 94.0693 96.1354 92.7093C96.1354 91.3493 96.4074 90.1573 96.9514 89.1333C97.5114 88.0933 98.2874 87.2933 99.2794 86.7333C100.287 86.1733 101.439 85.8933 102.735 85.8933C103.983 85.8933 105.095 86.1653 106.071 86.7093C107.047 87.2533 107.807 88.0213 108.351 89.0133C108.895 89.9893 109.167 91.1173 109.167 92.3973ZM106.311 91.5333C106.295 90.5253 105.935 89.7173 105.231 89.1093C104.527 88.5013 103.655 88.1973 102.615 88.1973C101.671 88.1973 100.863 88.5013 100.191 89.1093C99.5194 89.7013 99.1194 90.5093 98.9914 91.5333H106.311ZM114.596 81.5733V99.3333H111.86V81.5733H114.596ZM123.51 92.6613C123.51 91.3333 123.782 90.1573 124.326 89.1333C124.886 88.1093 125.638 87.3173 126.582 86.7573C127.542 86.1813 128.606 85.8933 129.774 85.8933C130.638 85.8933 131.486 86.0853 132.318 86.4693C133.166 86.8373 133.838 87.3333 134.334 87.9573V81.5733H137.094V99.3333H134.334V97.3413C133.886 97.9813 133.262 98.5093 132.462 98.9253C131.678 99.3413 130.774 99.5493 129.75 99.5493C128.598 99.5493 127.542 99.2613 126.582 98.6853C125.638 98.0933 124.886 97.2773 124.326 96.2373C123.782 95.1813 123.51 93.9893 123.51 92.6613ZM134.334 92.7093C134.334 91.7973 134.142 91.0053 133.758 90.3333C133.39 89.6613 132.902 89.1493 132.294 88.7973C131.686 88.4453 131.03 88.2693 130.326 88.2693C129.622 88.2693 128.966 88.4453 128.358 88.7973C127.75 89.1333 127.254 89.6373 126.87 90.3093C126.502 90.9653 126.318 91.7493 126.318 92.6613C126.318 93.5733 126.502 94.3733 126.87 95.0613C127.254 95.7493 127.75 96.2773 128.358 96.6453C128.982 96.9973 129.638 97.1733 130.326 97.1733C131.03 97.1733 131.686 96.9973 132.294 96.6453C132.902 96.2933 133.39 95.7813 133.758 95.1093C134.142 94.4213 134.334 93.6213 134.334 92.7093ZM152.808 92.3973C152.808 92.8933 152.776 93.3413 152.712 93.7413H142.608C142.688 94.7973 143.08 95.6453 143.784 96.2853C144.488 96.9253 145.352 97.2453 146.376 97.2453C147.848 97.2453 148.888 96.6293 149.496 95.3973H152.448C152.048 96.6133 151.32 97.6133 150.264 98.3973C149.224 99.1653 147.928 99.5493 146.376 99.5493C145.112 99.5493 143.976 99.2693 142.968 98.7093C141.976 98.1333 141.192 97.3333 140.616 96.3093C140.056 95.2693 139.776 94.0693 139.776 92.7093C139.776 91.3493 140.048 90.1573 140.592 89.1333C141.152 88.0933 141.928 87.2933 142.92 86.7333C143.928 86.1733 145.08 85.8933 146.376 85.8933C147.624 85.8933 148.736 86.1653 149.712 86.7093C150.688 87.2533 151.448 88.0213 151.992 89.0133C152.536 89.9893 152.808 91.1173 152.808 92.3973ZM149.952 91.5333C149.936 90.5253 149.576 89.7173 148.872 89.1093C148.168 88.5013 147.296 88.1973 146.256 88.1973C145.312 88.1973 144.504 88.5013 143.832 89.1093C143.16 89.7013 142.76 90.5093 142.632 91.5333H149.952ZM160.823 92.7093C160.823 91.3493 161.095 90.1573 161.639 89.1333C162.199 88.0933 162.967 87.2933 163.943 86.7333C164.919 86.1733 166.039 85.8933 167.303 85.8933C168.903 85.8933 170.223 86.2773 171.263 87.0453C172.319 87.7973 173.031 88.8773 173.399 90.2853H170.447C170.207 89.6293 169.823 89.1173 169.295 88.7493C168.767 88.3813 168.103 88.1973 167.303 88.1973C166.183 88.1973 165.287 88.5973 164.615 89.3973C163.959 90.1813 163.631 91.2853 163.631 92.7093C163.631 94.1333 163.959 95.2453 164.615 96.0453C165.287 96.8453 166.183 97.2453 167.303 97.2453C168.887 97.2453 169.935 96.5493 170.447 95.1573H173.399C173.015 96.5013 172.295 97.5733 171.239 98.3733C170.183 99.1573 168.871 99.5493 167.303 99.5493C166.039 99.5493 164.919 99.2693 163.943 98.7093C162.967 98.1333 162.199 97.3333 161.639 96.3093C161.095 95.2693 160.823 94.0693 160.823 92.7093ZM175.214 92.6613C175.214 91.3333 175.486 90.1573 176.03 89.1333C176.59 88.1093 177.342 87.3173 178.286 86.7573C179.246 86.1813 180.302 85.8933 181.454 85.8933C182.494 85.8933 183.398 86.1013 184.166 86.5173C184.95 86.9173 185.574 87.4213 186.038 88.0293V86.1093H188.798V99.3333H186.038V97.3653C185.574 97.9893 184.942 98.5093 184.142 98.9253C183.342 99.3413 182.43 99.5493 181.406 99.5493C180.27 99.5493 179.23 99.2613 178.286 98.6853C177.342 98.0933 176.59 97.2773 176.03 96.2373C175.486 95.1813 175.214 93.9893 175.214 92.6613ZM186.038 92.7093C186.038 91.7973 185.846 91.0053 185.462 90.3333C185.094 89.6613 184.606 89.1493 183.998 88.7973C183.39 88.4453 182.734 88.2693 182.03 88.2693C181.326 88.2693 180.67 88.4453 180.062 88.7973C179.454 89.1333 178.958 89.6373 178.574 90.3093C178.206 90.9653 178.022 91.7493 178.022 92.6613C178.022 93.5733 178.206 94.3733 178.574 95.0613C178.958 95.7493 179.454 96.2773 180.062 96.6453C180.686 96.9973 181.342 97.1733 182.03 97.1733C182.734 97.1733 183.39 96.9973 183.998 96.6453C184.606 96.2933 185.094 95.7813 185.462 95.1093C185.846 94.4213 186.038 93.6213 186.038 92.7093ZM195.127 88.0293C195.527 87.3573 196.055 86.8373 196.711 86.4693C197.383 86.0853 198.175 85.8933 199.087 85.8933V88.7253H198.391C197.319 88.7253 196.503 88.9973 195.943 89.5413C195.399 90.0853 195.127 91.0293 195.127 92.3733V99.3333H192.391V86.1093H195.127V88.0293ZM204.338 88.0293C204.738 87.3573 205.266 86.8373 205.922 86.4693C206.594 86.0853 207.386 85.8933 208.298 85.8933V88.7253H207.602C206.53 88.7253 205.714 88.9973 205.154 89.5413C204.61 90.0853 204.338 91.0293 204.338 92.3733V99.3333H201.602V86.1093H204.338V88.0293ZM216.549 99.5493C215.301 99.5493 214.173 99.2693 213.165 98.7093C212.157 98.1333 211.365 97.3333 210.789 96.3093C210.213 95.2693 209.925 94.0693 209.925 92.7093C209.925 91.3653 210.221 90.1733 210.813 89.1333C211.405 88.0933 212.213 87.2933 213.237 86.7333C214.261 86.1733 215.405 85.8933 216.669 85.8933C217.933 85.8933 219.077 86.1733 220.101 86.7333C221.125 87.2933 221.933 88.0933 222.525 89.1333C223.117 90.1733 223.413 91.3653 223.413 92.7093C223.413 94.0533 223.109 95.2453 222.501 96.2853C221.893 97.3253 221.061 98.1333 220.005 98.7093C218.965 99.2693 217.813 99.5493 216.549 99.5493ZM216.549 97.1733C217.253 97.1733 217.909 97.0053 218.517 96.6693C219.141 96.3333 219.645 95.8293 220.029 95.1573C220.413 94.4853 220.605 93.6693 220.605 92.7093C220.605 91.7493 220.421 90.9413 220.053 90.2853C219.685 89.6133 219.197 89.1093 218.589 88.7733C217.981 88.4373 217.325 88.2693 216.621 88.2693C215.917 88.2693 215.261 88.4373 214.653 88.7733C214.061 89.1093 213.589 89.6133 213.237 90.2853C212.885 90.9413 212.709 91.7493 212.709 92.7093C212.709 94.1333 213.069 95.2373 213.789 96.0213C214.525 96.7893 215.445 97.1733 216.549 97.1733ZM230.918 99.5493C229.878 99.5493 228.942 99.3653 228.11 98.9973C227.294 98.6133 226.646 98.1013 226.166 97.4613C225.686 96.8053 225.43 96.0773 225.398 95.2773H228.23C228.278 95.8373 228.542 96.3093 229.022 96.6933C229.518 97.0613 230.134 97.2453 230.87 97.2453C231.638 97.2453 232.23 97.1013 232.646 96.8133C233.078 96.5093 233.294 96.1253 233.294 95.6613C233.294 95.1653 233.054 94.7973 232.574 94.5573C232.11 94.3173 231.366 94.0533 230.342 93.7653C229.35 93.4933 228.542 93.2293 227.918 92.9733C227.294 92.7173 226.75 92.3253 226.286 91.7973C225.838 91.2693 225.614 90.5733 225.614 89.7093C225.614 89.0053 225.822 88.3653 226.238 87.7893C226.654 87.1973 227.246 86.7333 228.014 86.3973C228.798 86.0613 229.694 85.8933 230.702 85.8933C232.206 85.8933 233.414 86.2773 234.326 87.0453C235.254 87.7973 235.75 88.8293 235.814 90.1413H233.078C233.03 89.5493 232.79 89.0773 232.358 88.7253C231.926 88.3733 231.342 88.1973 230.606 88.1973C229.886 88.1973 229.334 88.3333 228.95 88.6053C228.566 88.8773 228.374 89.2373 228.374 89.6853C228.374 90.0373 228.502 90.3333 228.758 90.5733C229.014 90.8133 229.326 91.0053 229.694 91.1493C230.062 91.2773 230.606 91.4453 231.326 91.6533C232.286 91.9093 233.07 92.1733 233.678 92.4453C234.302 92.7013 234.838 93.0853 235.286 93.5973C235.734 94.1093 235.966 94.7893 235.982 95.6373C235.982 96.3893 235.774 97.0613 235.358 97.6533C234.942 98.2453 234.35 98.7093 233.582 99.0453C232.83 99.3813 231.942 99.5493 230.918 99.5493Z" fill="#999999"/>
<rect width="16.8729" height="55.8694" transform="matrix(0.736258 0.6767 -0.680327 0.732909 38.0095 6.11111)" fill="#0070AD"/>
<rect width="16.8729" height="55.8694" transform="matrix(0.736258 0.6767 -0.680327 0.732909 38.0095 25.0423)" fill="#12ABDB"/>
<path d="M35.0849 61.552H49.4209V70H24.1409V25.072H35.0849V61.552ZM70.8969 70.512C67.3982 70.512 64.2409 69.7653 61.4249 68.272C58.6516 66.7787 56.4542 64.6453 54.8329 61.872C53.2542 59.0987 52.4649 55.856 52.4649 52.144C52.4649 48.4747 53.2756 45.2533 54.8969 42.48C56.5182 39.664 58.7369 37.5093 61.5529 36.016C64.3689 34.5227 67.5262 33.776 71.0249 33.776C74.5236 33.776 77.6809 34.5227 80.4969 36.016C83.3129 37.5093 85.5316 39.664 87.1529 42.48C88.7742 45.2533 89.5849 48.4747 89.5849 52.144C89.5849 55.8133 88.7529 59.056 87.0889 61.872C85.4676 64.6453 83.2276 66.7787 80.3689 68.272C77.5529 69.7653 74.3956 70.512 70.8969 70.512ZM70.8969 61.04C72.9876 61.04 74.7582 60.272 76.2089 58.736C77.7022 57.2 78.4489 55.0027 78.4489 52.144C78.4489 49.2853 77.7236 47.088 76.2729 45.552C74.8649 44.016 73.1156 43.248 71.0249 43.248C68.8916 43.248 67.1209 44.016 65.7129 45.552C64.3049 47.0453 63.6009 49.2427 63.6009 52.144C63.6009 55.0027 64.2836 57.2 65.6489 58.736C67.0569 60.272 68.8062 61.04 70.8969 61.04ZM93.2149 52.144C93.2149 48.432 93.9616 45.1893 95.4549 42.416C96.9909 39.6427 99.1029 37.5093 101.791 36.016C104.522 34.5227 107.636 33.776 111.135 33.776C115.615 33.776 119.348 34.9493 122.335 37.296C125.364 39.6427 127.348 42.9493 128.287 47.216H116.639C115.658 44.4853 113.759 43.12 110.943 43.12C108.938 43.12 107.338 43.9093 106.143 45.488C104.948 47.024 104.351 49.2427 104.351 52.144C104.351 55.0453 104.948 57.2853 106.143 58.864C107.338 60.4 108.938 61.168 110.943 61.168C113.759 61.168 115.658 59.8027 116.639 57.072H128.287C127.348 61.2533 125.364 64.5387 122.335 66.928C119.306 69.3173 115.572 70.512 111.135 70.512C107.636 70.512 104.522 69.7653 101.791 68.272C99.1029 66.7787 96.9909 64.6453 95.4549 61.872C93.9616 59.0987 93.2149 55.856 93.2149 52.144ZM131.965 52.08C131.965 48.4107 132.648 45.1893 134.013 42.416C135.421 39.6427 137.32 37.5093 139.709 36.016C142.098 34.5227 144.765 33.776 147.709 33.776C150.226 33.776 152.424 34.288 154.301 35.312C156.221 36.336 157.693 37.68 158.717 39.344V34.288H169.661V70H158.717V64.944C157.65 66.608 156.157 67.952 154.237 68.976C152.36 70 150.162 70.512 147.645 70.512C144.744 70.512 142.098 69.7653 139.709 68.272C137.32 66.736 135.421 64.5813 134.013 61.808C132.648 58.992 131.965 55.7493 131.965 52.08ZM158.717 52.144C158.717 49.4133 157.949 47.2587 156.413 45.68C154.92 44.1013 153.085 43.312 150.909 43.312C148.733 43.312 146.877 44.1013 145.341 45.68C143.848 47.216 143.101 49.3493 143.101 52.08C143.101 54.8107 143.848 56.9867 145.341 58.608C146.877 60.1867 148.733 60.976 150.909 60.976C153.085 60.976 154.92 60.1867 156.413 58.608C157.949 57.0293 158.717 54.8747 158.717 52.144ZM212.847 47.472C212.847 43.0347 213.807 39.088 215.727 35.632C217.647 32.1333 220.314 29.424 223.727 27.504C227.183 25.5413 231.087 24.56 235.439 24.56C240.773 24.56 245.338 25.968 249.135 28.784C252.933 31.6 255.471 35.44 256.751 40.304H244.719C243.823 38.4267 242.543 36.9973 240.879 36.016C239.258 35.0347 237.402 34.544 235.311 34.544C231.941 34.544 229.21 35.7173 227.119 38.064C225.029 40.4107 223.983 43.5467 223.983 47.472C223.983 51.3973 225.029 54.5333 227.119 56.88C229.21 59.2267 231.941 60.4 235.311 60.4C237.402 60.4 239.258 59.9093 240.879 58.928C242.543 57.9467 243.823 56.5173 244.719 54.64H256.751C255.471 59.504 252.933 63.344 249.135 66.16C245.338 68.9333 240.773 70.32 235.439 70.32C231.087 70.32 227.183 69.36 223.727 67.44C220.314 65.4773 217.647 62.768 215.727 59.312C213.807 55.856 212.847 51.9093 212.847 47.472ZM261.277 52.08C261.277 48.4107 261.96 45.1893 263.325 42.416C264.733 39.6427 266.632 37.5093 269.021 36.016C271.411 34.5227 274.077 33.776 277.021 33.776C279.539 33.776 281.736 34.288 283.613 35.312C285.533 36.336 287.005 37.68 288.029 39.344V34.288H298.973V70H288.029V64.944C286.963 66.608 285.469 67.952 283.549 68.976C281.672 70 279.475 70.512 276.957 70.512C274.056 70.512 271.411 69.7653 269.021 68.272C266.632 66.736 264.733 64.5813 263.325 61.808C261.96 58.992 261.277 55.7493 261.277 52.08ZM288.029 52.144C288.029 49.4133 287.261 47.2587 285.725 45.68C284.232 44.1013 282.397 43.312 280.221 43.312C278.045 43.312 276.189 44.1013 274.653 45.68C273.16 47.216 272.413 49.3493 272.413 52.08C272.413 54.8107 273.16 56.9867 274.653 58.608C276.189 60.1867 278.045 60.976 280.221 60.976C282.397 60.976 284.232 60.1867 285.725 58.608C287.261 57.0293 288.029 54.8747 288.029 52.144ZM317.835 39.344C318.902 37.68 320.374 36.336 322.251 35.312C324.128 34.288 326.326 33.776 328.843 33.776C331.787 33.776 334.454 34.5227 336.843 36.016C339.232 37.5093 341.11 39.6427 342.475 42.416C343.883 45.1893 344.587 48.4107 344.587 52.08C344.587 55.7493 343.883 58.992 342.475 61.808C341.11 64.5813 339.232 66.736 336.843 68.272C334.454 69.7653 331.787 70.512 328.843 70.512C326.368 70.512 324.171 70 322.251 68.976C320.374 67.952 318.902 66.6293 317.835 65.008V87.024H306.891V34.288H317.835V39.344ZM333.451 52.08C333.451 49.3493 332.683 47.216 331.147 45.68C329.654 44.1013 327.798 43.312 325.579 43.312C323.403 43.312 321.547 44.1013 320.011 45.68C318.518 47.2587 317.771 49.4133 317.771 52.144C317.771 54.8747 318.518 57.0293 320.011 58.608C321.547 60.1867 323.403 60.976 325.579 60.976C327.755 60.976 329.611 60.1867 331.147 58.608C332.683 56.9867 333.451 54.8107 333.451 52.08Z" fill="#615C5C"/>
<path d="M205.098 42.992V52.08H176.938V42.992H205.098Z" fill="#FE8383"/>
</svg>
